<?xml version="1.0" encoding="UTF-8"?>
<svg xmlns="http://www.w3.org/2000/svg" width="32" height="32" viewBox="0 0 32 32">
  <g fill="#E50011">
    <path d="M6.85.1C3.65.7 1.1 3.04.3 6.15 0 7.25-.03 7.9 0 16.6c.03 7.97.04 8.16.17 8.78.74 3.32 3.1 5.68 6.45 6.46.44.1 1 .12 4.58.14 3.7.03 4.1.02 4.2-.08.1-.1.1-1.38.1-15.87 0-10.75-.02-15.8-.07-15.9C15.37 0 15.25 0 11.37 0c-3.15 0-4.1.03-4.52.1zm6 15.9v13.43l-2.7-.03c-2.48-.03-2.75-.04-3.25-.17-2.13-.55-3.7-2.2-4.16-4.33-.14-.67-.14-17.15 0-17.8.4-1.87 1.7-3.42 3.43-4.1.87-.36 1.28-.4 4.1-.4l2.58-.02V16z"/>
    <path d="M7.42 6.63c-.42.08-1.05.4-1.4.7-.7.6-1.03 1.46-.98 2.46.03.5.06.65.27 1.07.33.64.8 1.1 1.45 1.43.44.23.55.26 1.13.28.52.02.7 0 1.06-.12 1.44-.5 2.3-1.9 2.06-3.32-.3-1.7-1.9-2.84-3.58-2.5zM18.72.05c-.02.02-.04 7.2-.04 15.96 0 14.47 0 15.93.1 15.97.18.07 5.33.04 5.96-.02 2.7-.3 5.07-1.95 6.36-4.38.16-.3.38-.83.5-1.16.4-1.23.4-.9.4-10.42 0-7.6 0-8.73-.1-9.22C31.23 3.3 28.6.7 25.14.1c-.47-.08-1.18-.1-3.5-.1-1.58 0-2.9.02-2.92.05zm7.08 14.43c1.04.27 1.9 1.06 2.23 2.06.22.63.2 1.54 0 2.1-.4 1.06-1.2 1.8-2.23 2.06-1.65.44-3.42-.56-3.9-2.2-.15-.5-.14-1.36.03-1.88.5-1.62 2.22-2.57 3.87-2.14z"/>
  </g>
</svg>
