<?xml version="1.0" encoding="utf-8"?>
<!-- Generator: Adobe Illustrator 22.0.1, SVG Export Plug-In . SVG Version: 6.00 Build 0)  -->
<svg version="1.1" id="Layer_1" xmlns="http://www.w3.org/2000/svg" xmlns:xlink="http://www.w3.org/1999/xlink" x="0px" y="0px"
	 viewBox="0 0 134.708 103.949" enable-background="new 0 0 134.708 103.949" xml:space="preserve">
<g>
	<g>
		<path d="M50.372,0c5.858,1.092,11.616,2.652,17.346,4.278c3.278,0.952,6.547,1.937,9.795,2.986
			c5.102,1.625,10.182,3.465,14.803,6.209c2.07,1.257,4.058,2.677,5.757,4.409c1.841,1.799,3.348,3.933,4.454,6.255
			c2.015,4.208,2.705,8.909,2.909,13.531c0.096,3.016,0.09,6.058-0.473,9.035c-0.468,2.587-1.3,5.138-2.684,7.385
			c-1.222,1.984-2.921,3.701-4.983,4.807c-1.978,1.067-4.243,1.574-6.486,1.529c-3.402,0.035-6.703-1.049-9.756-2.471
			C80.999,47.8,81.046,37.645,81.03,27.494c-0.022-1.837,0.103-3.693-0.267-5.505c-0.26-1.404-0.833-2.819-1.935-3.772
			c-0.731-0.659-1.678-1.031-2.63-1.232c-0.963-0.183-1.99,0.226-2.586,0.999c-0.991,1.238-1.251,2.882-1.296,4.423
			c-0.008,27.181,0.01,54.363-0.008,81.542c-7.312-2.318-14.625-4.637-21.935-6.961C50.365,64.659,50.368,32.33,50.372,0z"/>
		<path d="M17.506,68.784C27.039,65.409,36.562,62,46.099,58.637c0.015,3.742,0,7.486,0.006,11.232
			c-0.006,0.508,0.027,1.019-0.037,1.523c-7.538,2.672-15.061,5.391-22.592,8.08c-1.044,0.395-2.115,0.841-2.92,1.638
			c-0.375,0.374-0.68,0.927-0.475,1.462c0.258,0.631,0.902,0.975,1.496,1.234c1.652,0.672,3.458,0.768,5.218,0.848
			c1.962-0.031,3.932-0.178,5.854-0.602c1.299-0.256,2.549-0.693,3.787-1.158c3.218-1.165,6.436-2.337,9.659-3.49
			c0.024,3.166,0.004,6.334,0.01,9.504c-0.01,0.633,0.029,1.27-0.034,1.9c-3.958,0.711-7.963,1.193-11.986,1.257
			c-8.101,0.183-16.221-1.071-23.916-3.603c-2.524-0.731-5.032-1.705-7.139-3.307c-1.16-0.898-2.198-2.027-2.725-3.416
			c-0.442-1.177-0.41-2.535,0.141-3.671c0.531-1.132,1.459-2.026,2.481-2.722c2.365-1.633,4.973-2.878,7.616-3.989
			C12.819,70.387,15.181,69.631,17.506,68.784z"/>
		<path d="M94.209,64.52c2.162-0.25,4.338-0.308,6.511-0.387c7.151,0.027,14.338,0.916,21.178,3.062
			c1.342,0.408,2.642,0.937,3.979,1.362c2.383,0.871,4.769,1.927,6.677,3.64c1.147,1.046,2.135,2.455,2.149,4.063
			c0.068,1.31-0.525,2.566-1.374,3.531c-1.616,1.812-3.752,3.058-5.897,4.144c-2.283,1.164-4.737,1.915-7.131,2.801
			c-14.612,5.247-29.225,10.492-43.835,15.745c-0.002-4.093,0.004-8.186-0.002-12.275c0.022-0.164-0.068-0.449,0.163-0.492
			c11.118-3.955,22.233-7.922,33.349-11.889c1.503-0.562,3.122-0.969,4.398-1.988c0.522-0.41,1.033-1.063,0.777-1.766
			c-0.267-0.615-0.905-0.955-1.492-1.21c-1.664-0.659-3.476-0.786-5.246-0.836c-2.771,0.019-5.567,0.36-8.202,1.249
			c-7.919,2.775-15.824,5.584-23.745,8.35c0.001-4.395-0.002-8.787,0.002-13.181C82.199,66.432,88.183,65.213,94.209,64.52z"/>
	</g>
</g>
</svg>
