<?xml version="1.0" encoding="UTF-8"?><svg xmlns="http://www.w3.org/2000/svg" width="629.636" height="134.426" viewBox="0 0 629.636 134.426"><path d="M403.05 0h-82.591c-25.474 0-37.958 15.741-37.958 36.179v62.087c0 12.684-5.989 21.788-18.631 21.788h-72.24c-.506 0-.925.419-.925.9v12.53c0 .512.419.941.925.941h81.768c25.464 0 37.979-15.67 37.979-36.118V36.179c0-12.694 5.943-21.818 18.657-21.818h73.017c.573 0 1.023-.409 1.023-.921V.931c0-.491-.451-.931-1.024-.931zM159.931 0H.998C.42 0 0 .44 0 .931V13.44c0 .512.419.941.998.941h149.374c12.627 0 18.621 9.104 18.621 21.797 0 12.643-5.994 21.726-18.621 21.726H32.201c-18.351 0-32.2 15.415-32.2 35.862v39.687c0 .543.419.973.998.973h26.927a.97.97 0 0 0 .967-.973V93.766c0-12.612 7.247-21.511 17.762-21.511h113.276c25.423 0 37.887-15.62 37.887-36.067C197.818 15.773 185.354 0 159.931 0zM617.8 65.535c-.356-.399-.356-1.084 0-1.473 7.917-6.557 11.835-16.438 11.835-27.874C629.635 15.772 617.197 0 591.697 0H432.805c-.542 0-.94.44-.94.972V13.44a.93.93 0 0 0 .94.941h149.35c12.591 0 18.667 9.104 18.667 21.797 0 12.643-6.035 21.726-18.667 21.726h-.185l-149.165.031c-.542 0-.94.389-.94.961v12.459c0 .501.398.9.94.9h149.35c16.468.194 18.636 16.232 18.636 24.436l.031 1.544c0 12.714-6.076 21.859-18.667 21.859h-149.35c-.542 0-.94.388-.94.899v12.49a.93.93 0 0 0 .94.941h158.893c25.521 0 37.938-16.939 37.938-36.189v-1.544c-.001-12.274-3.919-23.996-11.836-31.156z"/></svg>