<?xml version="1.0" encoding="UTF-8"?><svg xmlns="http://www.w3.org/2000/svg" width="301.467" height="64.451" viewBox="0 0 301.467 64.451"><path d="M154.563 47.039V17.064c0-6.115 2.854-10.494 8.941-10.494h37.547c.23 0 .451-.228.451-.454V.152a.406.406 0 0 0-.035-.152h-45.909c-9.951 1.265-14.812 8.2-14.812 17.064v29.974c0 6.115-2.934 10.495-8.94 10.495H92.154c-.225 0-.451.151-.451.453v5.965c0 .247.152.436.33.499h45.019c11.734-.308 17.511-7.799 17.511-17.411zM.306 64.451h13.183a.522.522 0 0 0 .33-.499V44.849c0-6.115 3.454-10.344 8.486-10.344h54.301c12.242 0 18.176-7.55 18.176-17.441C94.782 8.2 89.925 1.265 79.969 0H.062C.039.05 0 .089 0 .152v5.964c0 .302.15.454.45.454h71.574c6.084 0 8.938 4.379 8.938 10.494 0 6.116-2.854 10.495-8.938 10.495H15.396C6.609 27.559 0 35.035 0 44.849v19.103c-.001.247.105.435.306.499zm200.976-6.917h72.1c.221 0 .371.151.371.302v6.116c0 .302.23.453.451.453H287.2c.23 0 .449-.151.449-.453v-5.965c0-.227.23-.453.451-.453h12.916c.301 0 .451-.227.451-.452v-6.041c0-.227-.15-.453-.451-.453H288.1c-.221 0-.451-.227-.451-.453V6.57c0-3.555-1.321-5.819-3.542-6.57h-3.76c-1.172.301-2.446.84-3.812 1.661l-77.656 47.945c-3.004 1.887-4.057 4-3.305 5.586.6 1.36 2.323 2.342 5.708 2.342zm11.263-8.003l60.157-37.223c.379-.302 1.131-.226 1.131.604v37.223c0 .227-.23.453-.451.453h-60.465c-.521 0-.752-.15-.822-.302-.081-.302.069-.529.45-.755z"/></svg>