<?xml version="1.0" encoding="UTF-8"?><svg xmlns="http://www.w3.org/2000/svg" width="694.219" height="115.631" viewBox="0 0 694.219 115.631"><path d="M654.332 91.355l-73.525-.026-12.692 24.302h-16.719s52.105-98.644 54.18-102.013c2.074-3.371 8.018-14.015 17.611-13.497 9.591.518 13.601 7.819 15.417 10.93 1.813 3.111 55.615 104.58 55.615 104.58h-26.765zm-31.436-58.44c-2.324-4.667-7.603-5.816-10.455-.373-1.189 2.247-23.667 44.476-23.667 44.476l57.965.005zm-94.148-18.904l.085 100.591h-23.91V14.119l-45.388-.071V.077L574.395 0l-.052 14.133zM419.671.708h24.313v114.546h-24.313zm-86.922 114.901c-9.573-.518-13.575-7.804-15.386-10.908-1.812-3.105-55.51-104.378-55.51-104.378h26.714l44.471 82.557c2.319 4.658 7.59 5.805 10.437.371C345.803 78.853 387.717.323 387.717.323h16.688s-52.007 98.453-54.077 101.816c-2.072 3.364-8.005 13.988-17.579 13.47zm-140-84.003v52.439c0 19.174-8.632 31.137-32.558 31.137h-51.396v-14.178h44.842c9.177 0 14.66-7.454 14.66-16.958v-52.44c0-16.715 8.118-31.136 31.88-31.136h51.043v14.18h-44.161c-11.928-.516-14.31 9.254-14.31 16.956zM91.854 64.053h-55c-7.539 0-13.11 5.736-13.11 15.568v35.723H0V80.932c0-19.337 12.127-32.366 29.333-32.366h55.638c13.644-.519 16.898-7.291 16.898-17.124 0-7.538-3.771-17.829-16.898-16.793H0V.471h91.854c24.089 0 33.594 13.928 33.594 30.972 0 19.337-9.505 32.61-33.594 32.61z"/></svg>